PathFileType	4	(X/Y/Z)	walk-thru1-5-TP.trc
DataRate	CameraRate	NumFrames	NumMarkers	Units	OrigDataRate	OrigDataStartFrame	OrigNumFrames
120.00	120.00	       4	60	mm	120.00	196	       521
Frame#	Time	Top.Head			Front.Head			Rear.Head			Jaw			C7			R.Clavicle			L.Clavicle			R.Shoulder			L.Shoulder			R.Scapula			L.Scapula			R.Scap.Inf			R.Biceps.Lateral			R.Elbow			R.Elbow.Medial			R.Forearm			R.Ulna			R.Radius			R.Wrist			R.Thumb.M1			R.Thumb.M2			R.Thumb.M3			R.Finger3.M1			R.Finger3.M2			R.Finger3.M3			L.Biceps.Lateral			L.Elbow			L.Elbow.Medial			L.Forearm			L.Ulna			L.Radius			L.Wrist			L.Thumb.M1			L.Thumb.M2			L.Thumb.M3			L.Finger3.M1			L.Finger3.M2			L.Finger3.M3			V.Sacral			R.ASIS			L.ASIS			R.Thigh			R.Thigh.Front			R.Knee			R.Knee.Medial			R.Shank			R.Ankle			R.Ankle.Medial			R.Heel			R.Toe			R.MedFoot			L.Thigh			L.Knee			L.Knee.Medial			L.Shank			L.Ankle			L.Ankle.Medial			L.Heel			L.Toe			L.MedFoot			V_mid_ASIS			V_R_Knee_JC			V_L_Knee_JC			V_R_Elbow_JC			V_L_Elbow_JC			V_R_Ankle_JC			V_L_Ankle_JC			V_R_Wrist_JC			V_L_Wrist_JC			V_R_ScaTrpz_1stMC_JC			V_R_1stMC_1stPP_JC			V_R_1stPP_1stDP_JC			V_R_LunCap_3rdMC_JC			V_R_3rdMC_3rdPP_JC			V_R_3rdPP_3rdMP_JC			V_R_3rdMP_3rdDP_JC			V_L_ScaTrpz_1stMC_JC			V_L_1stMC_1stPP_JC			V_L_1stPP_1stDP_JC			V_L_LunCap_3rdMC_JC			V_L_3rdMC_3rdPP_JC			V_L_3rdPP_3rdMP_JC			V_L_3rdMP_3rdPP_JC			V_ROOT_JC			V_R_Hip_JC			V_L_Hip_JC			V_R_GlenHum_JC			V_L_GlenHum_JC			V_ForeHead_Ctr			V_Vertex			V_Sagit_Lambdoid_Suture			V_R_FrontoTemp			V_L_FrontoTemporal			V_R_ParietalOccip			V_L_ParietalOcciptal			V_R_Temporal			V_L_Temporal			V_mid_FrontRearHead			V_mid_RLGlenHumCtrs			V_C7_vert			V_C1_vert			V_Mid_Hip			
		X1	Y1	Z1	X2	Y2	Z2	X3	Y3	Z3	X4	Y4	Z4	X5	Y5	Z5	X6	Y6	Z6	X7	Y7	Z7	X8	Y8	Z8	X9	Y9	Z9	X10	Y10	Z10	X11	Y11	Z11	X12	Y12	Z12	X13	Y13	Z13	X14	Y14	Z14	X15	Y15	Z15	X16	Y16	Z16	X17	Y17	Z17	X18	Y18	Z18	X19	Y19	Z19	X20	Y20	Z20	X21	Y21	Z21	X22	Y22	Z22	X23	Y23	Z23	X24	Y24	Z24	X25	Y25	Z25	X26	Y26	Z26	X27	Y27	Z27	X28	Y28	Z28	X29	Y29	Z29	X30	Y30	Z30	X31	Y31	Z31	X32	Y32	Z32	X33	Y33	Z33	X34	Y34	Z34	X35	Y35	Z35	X36	Y36	Z36	X37	Y37	Z37	X38	Y38	Z38	X39	Y39	Z39	X40	Y40	Z40	X41	Y41	Z41	X42	Y42	Z42	X43	Y43	Z43	X44	Y44	Z44	X45	Y45	Z45	X46	Y46	Z46	X47	Y47	Z47	X48	Y48	Z48	X49	Y49	Z49	X50	Y50	Z50	X51	Y51	Z51	X52	Y52	Z52	X53	Y53	Z53	X54	Y54	Z54	X55	Y55	Z55	X56	Y56	Z56	X57	Y57	Z57	X58	Y58	Z58	X59	Y59	Z59	X60	Y60	Z60	

196	1.625	578.98938	73.16926	1792.12646	475.68478	66.10731	1682.84790	702.86438	70.50703	1690.63306	515.51984	65.13454	1514.85657	713.91504	66.89483	1554.94385	613.84583	184.46935	1459.99487	605.65240	-44.97848	1463.36633	654.59058	272.06100	1453.60840	672.79224	-140.18257	1472.58960	764.11401	155.39810	1469.95178	762.48572	-11.77833	1474.89758	810.17511	163.96118	1382.75623	704.07092	328.54037	1276.18372	738.15063	346.71973	1122.48035	760.35614	259.40887	1105.61646	653.99316	292.29108	1007.16486	686.79865	335.54126	906.51440	627.23260	273.48376	877.43433	631.17706	312.51883	829.72833	616.65607	267.54855	843.64966	582.11499	235.56850	797.13947	546.56537	232.45454	769.64258	589.16742	315.12000	759.30200	576.01172	274.75357	706.85089	590.27063	230.00534	683.90289	702.08820	-204.88454	1325.74377	721.34222	-251.29448	1150.04504	767.18445	-186.28355	1133.31860	656.70728	-222.73456	1044.16138	707.86835	-247.37794	955.06335	641.90179	-192.26471	903.82574	648.09125	-226.23813	847.85803	635.68738	-178.65533	838.71790	641.90417	-145.32072	787.87958	639.80096	-152.82076	727.13409	633.98077	-241.36388	772.09100	648.50055	-222.76268	715.92566	674.41748	-205.72408	672.95764	801.78558	51.13807	1077.20886	715.11017	242.25688	1018.40118	690.50305	-133.02788	1022.72479	723.61420	196.26781	619.01660	663.55719	109.79843	528.09760	734.63428	166.86978	484.64737	734.06299	51.59801	490.51276	791.74701	119.87418	312.45721	974.09131	139.82280	104.89364	932.72266	45.94371	118.93078	1033.53674	80.02843	99.72958	805.57959	107.40780	47.40202	864.88940	65.95214	80.00058	563.74969	-113.13367	651.76514	506.98599	-87.11740	518.11713	510.24063	27.23466	520.04749	483.58859	-34.74592	320.55344	564.18048	-55.99248	70.99212	527.82574	37.04477	112.46753	609.95996	8.05990	56.19065	375.76968	-18.29553	52.53793	437.21738	15.59839	74.50566																																																																																																																															
197	1.633	571.59058	73.35831	1793.36389	469.56973	64.88084	1683.03943	696.30634	68.93845	1691.08911	509.64017	66.86030	1515.10498	707.12592	65.82754	1555.97571	607.26910	183.13794	1461.25757	598.24823	-45.83472	1464.45618	649.18866	270.14709	1453.92065	665.74298	-141.54759	1472.44226	756.63214	154.57240	1470.87158	756.29053	-13.80242	1474.71899	803.57336	163.07489	1382.93323	698.45282	328.51801	1276.77490	734.21185	344.88205	1123.75024	755.61908	256.87741	1107.47949	649.17035	290.36221	1008.42841	684.12738	334.32285	907.07123	623.73419	272.47333	877.02344	628.69635	312.28091	829.91852	613.68744	266.94504	842.93085	579.85071	235.97083	796.81134	544.58496	234.13905	767.88379	587.34009	314.49969	758.77667	575.03333	274.66888	706.22357	589.08124	229.17485	683.81787	693.69360	-205.60175	1325.58228	713.03406	-250.68130	1150.36169	760.17383	-187.54184	1134.03015	649.13684	-224.48434	1044.46375	700.55774	-248.21974	955.23969	634.33441	-191.55676	904.31921	639.82672	-227.31143	847.74011	627.26599	-180.35081	838.79858	633.36993	-146.01692	789.35364	630.52271	-154.29866	727.34711	626.43250	-243.61234	772.76361	642.10150	-224.76439	716.15320	666.55145	-207.25017	673.24719	795.10956	49.53391	1078.49963	706.28101	239.82799	1019.81006	684.21222	-134.09169	1023.07770	716.79724	195.47519	619.25812	655.21008	110.07291	528.04193	726.37366	167.02213	484.81030	726.25348	51.67677	489.72195	784.83167	118.87495	312.81076	972.66089	139.60880	109.07279	929.69104	45.97717	122.39605	1032.27393	79.62237	105.09916	804.91681	106.92964	47.66740	862.88043	66.48978	81.17179	558.49335	-112.43359	653.15674	501.77264	-88.84677	517.72870	505.07568	26.44787	520.24188	480.79895	-35.17020	320.10635	563.74756	-55.83569	70.73254	527.75079	37.04041	112.17471	610.80280	6.70460	56.15314	374.91367	-18.98653	51.89152	437.11548	15.41638	74.44345																																																																																																																															
198	1.642	566.36414	72.69888	1793.86719	462.49445	63.84014	1683.74341	689.01764	68.33776	1692.02429	503.39856	66.26811	1516.34192	701.07373	63.93425	1556.35486	600.53308	181.32733	1462.04114	592.09692	-46.87179	1464.98706	642.52313	269.05215	1454.61047	659.59821	-142.74120	1472.81970	751.19281	153.40771	1471.60559	749.36548	-15.91286	1476.35718	797.40753	161.92439	1382.99902	693.31134	326.27240	1277.23120	729.08533	342.73038	1124.44470	749.94366	255.31380	1107.83118	643.76300	289.50458	1009.92004	681.04932	333.21902	907.84564	620.54791	271.65332	876.46625	626.03375	310.85052	829.25189	610.89539	266.01825	842.73322	578.52344	236.08769	795.77789	541.78827	234.75241	766.91736	585.41785	314.83157	758.79663	574.12665	274.60257	705.22168	587.92517	229.86559	683.41443	686.29150	-206.65640	1325.39673	705.59589	-251.41934	1150.71265	752.68298	-188.15343	1133.75891	641.02142	-224.81227	1045.28259	691.48615	-249.71852	955.67474	626.74988	-193.22177	904.56604	631.52863	-228.81467	847.92169	619.16364	-180.24477	838.59131	625.62347	-148.59183	789.55957	625.26117	-153.56133	727.51794	618.21387	-244.20099	772.85968	633.34723	-226.15347	716.84045	657.84497	-208.94707	673.65668	788.47797	48.45378	1079.60217	702.85547	239.17584	1020.89642	677.92255	-134.84003	1023.65271	708.45422	195.86760	619.29700	645.59387	111.00491	527.12744	717.42041	168.03282	484.48416	716.28943	52.03391	489.22256	778.97443	121.89394	312.86279	969.64478	139.79474	113.26410	926.67053	46.51023	125.73848	1029.37402	79.64408	111.38849	805.33972	106.88770	47.58694	860.98340	66.42704	82.32661	553.51031	-114.34717	653.27185	498.08533	-89.48878	516.56372	500.24191	25.36339	519.65363	478.11960	-36.21646	319.20157	563.57562	-55.52035	70.66632	527.47260	37.03481	112.17796	610.40344	6.98025	56.38552	374.37558	-18.52585	50.64186	436.76639	15.61960	74.11469																																																																																																																															
199	1.650	559.31659	71.41842	1793.93408	455.68628	63.41156	1684.14600	682.29010	67.82039	1692.50098	497.12366	65.23547	1516.92957	693.30499	65.88033	1557.65247	594.93445	180.22621	1462.81812	585.21759	-48.19279	1465.59534	636.55536	268.17245	1455.75464	652.30505	-143.37038	1474.29565	744.18805	153.02950	1472.63770	742.96790	-17.92919	1477.41602	790.89270	160.38762	1384.56750	687.14441	324.73660	1278.13269	723.83136	341.22830	1126.26953	744.34375	252.32767	1110.01111	641.56610	290.44305	1009.45477	677.38263	332.69366	908.89270	618.07727	272.06409	877.05286	623.43695	310.23740	829.60712	608.42505	266.60922	842.79071	574.13367	234.62465	795.40173	539.30145	233.22444	765.39355	583.86035	315.69174	758.91669	570.28351	275.43088	705.20044	586.15326	230.55383	682.68689	678.77209	-207.92796	1326.75977	697.21069	-252.86620	1152.00879	743.73303	-187.93163	1135.35864	632.01904	-225.21002	1045.76855	683.04901	-249.43849	956.37671	617.91980	-194.96283	905.90503	623.40814	-228.85251	848.53943	610.59595	-181.81871	838.98004	617.12549	-147.65077	791.02203	615.60529	-154.78392	728.06409	609.49847	-244.54373	773.81616	624.54315	-227.45329	717.86005	650.16223	-210.56703	674.36444	782.20544	47.37597	1079.78772	694.06464	240.34187	1021.79114	669.78851	-135.78300	1024.49854	699.79480	195.24835	620.00623	636.37689	114.63939	527.68884	708.42090	168.79799	485.03702	705.83289	53.53350	488.66739	772.61322	120.16939	313.26660	966.63348	140.24651	117.56105	922.55829	46.30966	129.20143	1025.81995	79.23424	117.70734	804.81891	106.88129	47.96923	858.14764	66.69881	84.00449	550.08496	-115.81339	652.67682	495.59769	-89.72691	516.39069	494.74405	25.46181	518.73016	475.76028	-36.36013	318.37247	562.99023	-55.23744	70.83350	527.32800	37.24052	111.96837	610.31818	7.14457	56.35497	374.02216	-17.70110	49.88256	436.44540	16.15659	74.28289																																																																																																																															
